M48
; DRILL file {KiCad (5.1.5)-3} date 05/02/2023 16:57:27
; FORMAT={-:-/ absolute / inch / decimal}
; #@! TF.CreationDate,2023-02-05T16:57:27+09:00
; #@! TF.GenerationSoftware,Kicad,Pcbnew,(5.1.5)-3
; #@! TF.FileFunction,Plated,1,2,PTH
FMAT,2
INCH
T1C0.0157
T2C0.0315
T3C0.0360
T4C0.0394
T5C0.0866
%
G90
G05
T1
X1.0864Y-2.472
X1.0925Y-2.0945
X1.0925Y-2.4331
X1.124Y-1.1102
X1.1247Y-2.4808
X1.1299Y-2.5394
X1.1368Y-2.6526
X1.1555Y-1.1378
X1.1562Y-2.1873
X1.1752Y-1.5906
X1.1833Y-2.1522
X1.1929Y-2.8622
X1.2106Y-1.1654
X1.2264Y-1.6181
X1.2264Y-1.6625
X1.2268Y-2.6476
X1.2535Y-2.1995
X1.2587Y-2.2437
X1.2933Y-2.876
X1.3227Y-2.8484
X1.3459Y-2.1901
X1.3644Y-2.1553
X1.3836Y-2.5844
X1.4173Y-2.3622
X1.4252Y-2.5315
X1.4449Y-2.777
X1.4457Y-2.4287
X1.4685Y-2.5472
X1.4883Y-2.4323
X1.4983Y-2.5203
X1.5183Y-2.4817
X1.5326Y-1.4544
X1.5346Y-1.8504
X1.5571Y-2.6024
X1.5654Y-1.9244
X1.5654Y-2.2924
X1.57Y-2.193
X1.5768Y-2.7559
X1.593Y-1.5384
X1.5934Y-2.252
X1.6206Y-1.4764
X1.6206Y-1.9024
X1.6351Y-2.2194
X1.6366Y-2.7584
X1.6484Y-1.5042
X1.6484Y-1.8746
X1.6761Y-2.5445
X1.6919Y-2.278
X1.7037Y-2.5118
X1.7106Y-1.566
X1.7224Y-2.1953
X1.7626Y-1.9024
X1.7626Y-2.2228
X1.8666Y-1.4764
X2.0389Y-2.6881
X2.0626Y-1.5064
X2.2579Y-2.563
X2.2666Y-2.2504
X2.376Y-2.563
X2.3799Y-2.6662
X2.5606Y-1.8744
X2.7606Y-2.2724
X2.8586Y-1.566
X2.9272Y-2.622
X2.9606Y-1.4464
X3.0217Y-2.5512
X3.1057Y-2.1806
X3.1634Y-2.3315
X3.2067Y-2.5315
X3.2185Y-2.1806
X3.2566Y-2.6111
X3.2586Y-1.5384
X3.2606Y-1.9164
X3.4626Y-1.8484
X3.5626Y-2.6404
X3.6626Y-2.2884
X3.7382Y-1.6181
X3.7618Y-2.1654
X3.7626Y-1.9264
X3.8484Y-1.5906
X3.8524Y-1.1654
X3.8642Y-2.1379
X3.9193Y-1.1378
X3.9587Y-2.1102
X3.9626Y-2.5844
X4.2646Y-2.6104
X4.3306Y-1.8944
X4.3658Y-1.8668
X4.5626Y-1.9377
X4.5646Y-1.2164
X4.6646Y-2.6704
X4.8646Y-2.638
X5.3606Y-1.242
X5.3626Y-1.8511
X5.4387Y-1.9554
X5.5256Y-1.1134
X5.5686Y-1.1784
X5.6606Y-1.6664
X5.7186Y-2.6104
X5.7206Y-1.8924
X5.7446Y-1.1764
X5.7481Y-1.9231
X5.7481Y-2.5728
X5.7746Y-1.0364
X5.7757Y-1.8875
X5.7766Y-2.7964
X5.7884Y-1.9248
X5.8032Y-1.2144
X5.8041Y-2.0384
X5.8041Y-2.7484
X5.8111Y-1.9809
X5.8317Y-2.6244
X5.8317Y-1.2427
X5.8317Y-1.8404
X5.8474Y-2.5276
X5.8484Y-2.2953
X5.8566Y-2.6724
X5.8583Y-1.9727
X5.8593Y-1.4004
X5.8869Y-1.8024
T2
X1.6693Y-2.9606
X1.8661Y-2.9606
X3.4799Y-2.9783
X3.8799Y-2.9783
X3.9724Y-2.9783
X4.3724Y-2.9783
X1.9563Y-2.9764
X2.3563Y-2.9764
X2.9606Y-2.9764
X3.3606Y-2.9764
X2.4524Y-2.9764
X2.8524Y-2.9764
X1.2992Y-2.0512
X1.4961Y-2.0512
X1.3209Y-1.7402
X1.3209Y-1.937
T3
X1.7634Y-1.0341
X1.7634Y-1.3341
X1.8634Y-1.0341
X1.8634Y-1.3341
X1.9634Y-1.0341
X1.9634Y-1.3341
X2.0634Y-1.0341
X2.0634Y-1.3341
X2.1634Y-1.0341
X2.1634Y-1.3341
X2.2634Y-1.0341
X2.2634Y-1.3341
X2.3634Y-1.0341
X2.3634Y-1.3341
X2.4634Y-1.0341
X2.4634Y-1.3341
X2.5634Y-1.0341
X2.5634Y-1.3341
X2.6634Y-1.0341
X2.6634Y-1.3341
X4.7632Y-2.4514
X4.7632Y-2.7514
X4.8632Y-2.4514
X4.8632Y-2.7514
X4.9632Y-2.4514
X4.9632Y-2.7514
X5.0632Y-2.4514
X5.0632Y-2.7514
X5.1632Y-2.4514
X5.1632Y-2.7514
X5.2632Y-2.4514
X5.2632Y-2.7514
X5.3632Y-2.4514
X5.3632Y-2.7514
X5.4632Y-2.4514
X5.4632Y-2.7514
X5.5632Y-2.4514
X5.5632Y-2.7514
X5.6632Y-2.4514
X5.6632Y-2.7514
X3.7632Y-2.4514
X3.7632Y-2.7514
X3.8632Y-2.4514
X3.8632Y-2.7514
X3.9632Y-2.4514
X3.9632Y-2.7514
X4.0632Y-2.4514
X4.0632Y-2.7514
X4.1632Y-2.4514
X4.1632Y-2.7514
X4.2632Y-2.4514
X4.2632Y-2.7514
X4.3632Y-2.4514
X4.3632Y-2.7514
X4.4632Y-2.4514
X4.4632Y-2.7514
X4.5632Y-2.4514
X4.5632Y-2.7514
X4.6632Y-2.4514
X4.6632Y-2.7514
X1.7632Y-1.7427
X1.7632Y-2.0427
X1.8632Y-1.7427
X1.8632Y-2.0427
X1.9632Y-1.7427
X1.9632Y-2.0427
X2.0632Y-1.7427
X2.0632Y-2.0427
X2.1632Y-1.7427
X2.1632Y-2.0427
X2.2632Y-1.7427
X2.2632Y-2.0427
X2.3632Y-1.7427
X2.3632Y-2.0427
X2.4632Y-1.7427
X2.4632Y-2.0427
X2.5632Y-1.7427
X2.5632Y-2.0427
X2.6632Y-1.7427
X2.6632Y-2.0427
X4.7632Y-1.7427
X4.7632Y-2.0427
X4.8632Y-1.7427
X4.8632Y-2.0427
X4.9632Y-1.7427
X4.9632Y-2.0427
X5.0632Y-1.7427
X5.0632Y-2.0427
X5.1632Y-1.7427
X5.1632Y-2.0427
X5.2632Y-1.7427
X5.2632Y-2.0427
X5.3632Y-1.7427
X5.3632Y-2.0427
X5.4632Y-1.7427
X5.4632Y-2.0427
X5.5632Y-1.7427
X5.5632Y-2.0427
X5.6632Y-1.7427
X5.6632Y-2.0427
X4.7632Y-1.0341
X4.7632Y-1.3341
X4.8632Y-1.0341
X4.8632Y-1.3341
X4.9632Y-1.0341
X4.9632Y-1.3341
X5.0632Y-1.0341
X5.0632Y-1.3341
X5.1632Y-1.0341
X5.1632Y-1.3341
X5.2632Y-1.0341
X5.2632Y-1.3341
X5.3632Y-1.0341
X5.3632Y-1.3341
X5.4632Y-1.0341
X5.4632Y-1.3341
X5.5632Y-1.0341
X5.5632Y-1.3341
X5.6632Y-1.0341
X5.6632Y-1.3341
X1.7632Y-2.4514
X1.7632Y-2.7514
X1.8632Y-2.4514
X1.8632Y-2.7514
X1.9632Y-2.4514
X1.9632Y-2.7514
X2.0632Y-2.4514
X2.0632Y-2.7514
X2.1632Y-2.4514
X2.1632Y-2.7514
X2.2632Y-2.4514
X2.2632Y-2.7514
X2.3632Y-2.4514
X2.3632Y-2.7514
X2.4632Y-2.4514
X2.4632Y-2.7514
X2.5632Y-2.4514
X2.5632Y-2.7514
X2.6632Y-2.4514
X2.6632Y-2.7514
X2.7632Y-1.0341
X2.7632Y-1.3341
X2.8632Y-1.0341
X2.8632Y-1.3341
X2.9632Y-1.0341
X2.9632Y-1.3341
X3.0632Y-1.0341
X3.0632Y-1.3341
X3.1632Y-1.0341
X3.1632Y-1.3341
X3.2632Y-1.0341
X3.2632Y-1.3341
X3.3632Y-1.0341
X3.3632Y-1.3341
X3.4632Y-1.0341
X3.4632Y-1.3341
X3.5632Y-1.0341
X3.5632Y-1.3341
X3.6632Y-1.0341
X3.6632Y-1.3341
X2.7632Y-2.4514
X2.7632Y-2.7514
X2.8632Y-2.4514
X2.8632Y-2.7514
X2.9632Y-2.4514
X2.9632Y-2.7514
X3.0632Y-2.4514
X3.0632Y-2.7514
X3.1632Y-2.4514
X3.1632Y-2.7514
X3.2632Y-2.4514
X3.2632Y-2.7514
X3.3632Y-2.4514
X3.3632Y-2.7514
X3.4632Y-2.4514
X3.4632Y-2.7514
X3.5632Y-2.4514
X3.5632Y-2.7514
X3.6632Y-2.4514
X3.6632Y-2.7514
X3.7632Y-1.7427
X3.7632Y-2.0427
X3.8632Y-1.7427
X3.8632Y-2.0427
X3.9632Y-1.7427
X3.9632Y-2.0427
X4.0632Y-1.7427
X4.0632Y-2.0427
X4.1632Y-1.7427
X4.1632Y-2.0427
X4.2632Y-1.7427
X4.2632Y-2.0427
X4.3632Y-1.7427
X4.3632Y-2.0427
X4.4632Y-1.7427
X4.4632Y-2.0427
X4.5632Y-1.7427
X4.5632Y-2.0427
X4.6632Y-1.7427
X4.6632Y-2.0427
X2.7632Y-1.7427
X2.7632Y-2.0427
X2.8632Y-1.7427
X2.8632Y-2.0427
X2.9632Y-1.7427
X2.9632Y-2.0427
X3.0632Y-1.7427
X3.0632Y-2.0427
X3.1632Y-1.7427
X3.1632Y-2.0427
X3.2632Y-1.7427
X3.2632Y-2.0427
X3.3632Y-1.7427
X3.3632Y-2.0427
X3.4632Y-1.7427
X3.4632Y-2.0427
X3.5632Y-1.7427
X3.5632Y-2.0427
X3.6632Y-1.7427
X3.6632Y-2.0427
X3.7632Y-1.0341
X3.7632Y-1.3341
X3.8632Y-1.0341
X3.8632Y-1.3341
X3.9632Y-1.0341
X3.9632Y-1.3341
X4.0632Y-1.0341
X4.0632Y-1.3341
X4.1632Y-1.0341
X4.1632Y-1.3341
X4.2632Y-1.0341
X4.2632Y-1.3341
X4.3632Y-1.0341
X4.3632Y-1.3341
X4.4632Y-1.0341
X4.4632Y-1.3341
X4.5632Y-1.0341
X4.5632Y-1.3341
X4.6632Y-1.0341
X4.6632Y-1.3341
T4
X1.1472Y-2.9705
X1.2472Y-2.9705
X1.3472Y-2.9705
X1.4472Y-2.9705
X1.5472Y-2.9705
T5
X0.9665Y-0.8937
X5.8287Y-0.8937
X5.8287Y-3.0
X0.9665Y-3.0
T0
M30
