G04 #@! TF.GenerationSoftware,KiCad,Pcbnew,(5.1.5)-3*
G04 #@! TF.CreationDate,2023-02-05T16:44:42+09:00*
G04 #@! TF.ProjectId,Dot_matrix_driver,446f745f-6d61-4747-9269-785f64726976,rev?*
G04 #@! TF.SameCoordinates,Original*
G04 #@! TF.FileFunction,Copper,L2,Bot*
G04 #@! TF.FilePolarity,Positive*
%FSLAX46Y46*%
G04 Gerber Fmt 4.6, Leading zero omitted, Abs format (unit mm)*
G04 Created by KiCad (PCBNEW (5.1.5)-3) date 2023-02-05 16:44:42*
%MOMM*%
%LPD*%
G04 APERTURE LIST*
%ADD10C,3.800000*%
%ADD11C,2.032000*%
%ADD12R,2.032000X2.032000*%
%ADD13O,1.700000X1.700000*%
%ADD14R,1.700000X1.700000*%
%ADD15O,1.600000X1.600000*%
%ADD16C,1.600000*%
%ADD17C,0.800000*%
%ADD18C,0.381000*%
%ADD19C,0.200000*%
%ADD20C,0.250000*%
%ADD21C,0.180000*%
G04 APERTURE END LIST*
D10*
X24550000Y-76200000D03*
X24550000Y-22700000D03*
X148050000Y-22700000D03*
X148050000Y-76200000D03*
D11*
X44785200Y-62265400D03*
X47325200Y-62265400D03*
X49865200Y-62265400D03*
X52405200Y-62265400D03*
X65105200Y-69885400D03*
X67645200Y-69885400D03*
X67645200Y-62265400D03*
X65105200Y-62265400D03*
X62565200Y-69885400D03*
X60025200Y-69885400D03*
X57485200Y-69885400D03*
X54945200Y-69885400D03*
X54945200Y-62265400D03*
X57485200Y-62265400D03*
X60025200Y-62265400D03*
X62565200Y-62265400D03*
X52405200Y-69885400D03*
X49865200Y-69885400D03*
X47325200Y-69885400D03*
D12*
X44785200Y-69885400D03*
D13*
X29140000Y-75450000D03*
X31680000Y-75450000D03*
X34220000Y-75450000D03*
X36760000Y-75450000D03*
D14*
X39300000Y-75450000D03*
D11*
X120985200Y-62265400D03*
X123525200Y-62265400D03*
X126065200Y-62265400D03*
X128605200Y-62265400D03*
X141305200Y-69885400D03*
X143845200Y-69885400D03*
X143845200Y-62265400D03*
X141305200Y-62265400D03*
X138765200Y-69885400D03*
X136225200Y-69885400D03*
X133685200Y-69885400D03*
X131145200Y-69885400D03*
X131145200Y-62265400D03*
X133685200Y-62265400D03*
X136225200Y-62265400D03*
X138765200Y-62265400D03*
X128605200Y-69885400D03*
X126065200Y-69885400D03*
X123525200Y-69885400D03*
D12*
X120985200Y-69885400D03*
D11*
X95585200Y-62265400D03*
X98125200Y-62265400D03*
X100665200Y-62265400D03*
X103205200Y-62265400D03*
X115905200Y-69885400D03*
X118445200Y-69885400D03*
X118445200Y-62265400D03*
X115905200Y-62265400D03*
X113365200Y-69885400D03*
X110825200Y-69885400D03*
X108285200Y-69885400D03*
X105745200Y-69885400D03*
X105745200Y-62265400D03*
X108285200Y-62265400D03*
X110825200Y-62265400D03*
X113365200Y-62265400D03*
X103205200Y-69885400D03*
X100665200Y-69885400D03*
X98125200Y-69885400D03*
D12*
X95585200Y-69885400D03*
D11*
X70185200Y-62265400D03*
X72725200Y-62265400D03*
X75265200Y-62265400D03*
X77805200Y-62265400D03*
X90505200Y-69885400D03*
X93045200Y-69885400D03*
X93045200Y-62265400D03*
X90505200Y-62265400D03*
X87965200Y-69885400D03*
X85425200Y-69885400D03*
X82885200Y-69885400D03*
X80345200Y-69885400D03*
X80345200Y-62265400D03*
X82885200Y-62265400D03*
X85425200Y-62265400D03*
X87965200Y-62265400D03*
X77805200Y-69885400D03*
X75265200Y-69885400D03*
X72725200Y-69885400D03*
D12*
X70185200Y-69885400D03*
D11*
X120985200Y-44265400D03*
X123525200Y-44265400D03*
X126065200Y-44265400D03*
X128605200Y-44265400D03*
X141305200Y-51885400D03*
X143845200Y-51885400D03*
X143845200Y-44265400D03*
X141305200Y-44265400D03*
X138765200Y-51885400D03*
X136225200Y-51885400D03*
X133685200Y-51885400D03*
X131145200Y-51885400D03*
X131145200Y-44265400D03*
X133685200Y-44265400D03*
X136225200Y-44265400D03*
X138765200Y-44265400D03*
X128605200Y-51885400D03*
X126065200Y-51885400D03*
X123525200Y-51885400D03*
D12*
X120985200Y-51885400D03*
D11*
X95585200Y-44265400D03*
X98125200Y-44265400D03*
X100665200Y-44265400D03*
X103205200Y-44265400D03*
X115905200Y-51885400D03*
X118445200Y-51885400D03*
X118445200Y-44265400D03*
X115905200Y-44265400D03*
X113365200Y-51885400D03*
X110825200Y-51885400D03*
X108285200Y-51885400D03*
X105745200Y-51885400D03*
X105745200Y-44265400D03*
X108285200Y-44265400D03*
X110825200Y-44265400D03*
X113365200Y-44265400D03*
X103205200Y-51885400D03*
X100665200Y-51885400D03*
X98125200Y-51885400D03*
D12*
X95585200Y-51885400D03*
D11*
X70185200Y-44265400D03*
X72725200Y-44265400D03*
X75265200Y-44265400D03*
X77805200Y-44265400D03*
X90505200Y-51885400D03*
X93045200Y-51885400D03*
X93045200Y-44265400D03*
X90505200Y-44265400D03*
X87965200Y-51885400D03*
X85425200Y-51885400D03*
X82885200Y-51885400D03*
X80345200Y-51885400D03*
X80345200Y-44265400D03*
X82885200Y-44265400D03*
X85425200Y-44265400D03*
X87965200Y-44265400D03*
X77805200Y-51885400D03*
X75265200Y-51885400D03*
X72725200Y-51885400D03*
D12*
X70185200Y-51885400D03*
D11*
X44785200Y-44265400D03*
X47325200Y-44265400D03*
X49865200Y-44265400D03*
X52405200Y-44265400D03*
X65105200Y-51885400D03*
X67645200Y-51885400D03*
X67645200Y-44265400D03*
X65105200Y-44265400D03*
X62565200Y-51885400D03*
X60025200Y-51885400D03*
X57485200Y-51885400D03*
X54945200Y-51885400D03*
X54945200Y-44265400D03*
X57485200Y-44265400D03*
X60025200Y-44265400D03*
X62565200Y-44265400D03*
X52405200Y-51885400D03*
X49865200Y-51885400D03*
X47325200Y-51885400D03*
D12*
X44785200Y-51885400D03*
D11*
X120985200Y-26265400D03*
X123525200Y-26265400D03*
X126065200Y-26265400D03*
X128605200Y-26265400D03*
X141305200Y-33885400D03*
X143845200Y-33885400D03*
X143845200Y-26265400D03*
X141305200Y-26265400D03*
X138765200Y-33885400D03*
X136225200Y-33885400D03*
X133685200Y-33885400D03*
X131145200Y-33885400D03*
X131145200Y-26265400D03*
X133685200Y-26265400D03*
X136225200Y-26265400D03*
X138765200Y-26265400D03*
X128605200Y-33885400D03*
X126065200Y-33885400D03*
X123525200Y-33885400D03*
D12*
X120985200Y-33885400D03*
D11*
X95585200Y-26265400D03*
X98125200Y-26265400D03*
X100665200Y-26265400D03*
X103205200Y-26265400D03*
X115905200Y-33885400D03*
X118445200Y-33885400D03*
X118445200Y-26265400D03*
X115905200Y-26265400D03*
X113365200Y-33885400D03*
X110825200Y-33885400D03*
X108285200Y-33885400D03*
X105745200Y-33885400D03*
X105745200Y-26265400D03*
X108285200Y-26265400D03*
X110825200Y-26265400D03*
X113365200Y-26265400D03*
X103205200Y-33885400D03*
X100665200Y-33885400D03*
X98125200Y-33885400D03*
D12*
X95585200Y-33885400D03*
D11*
X70185200Y-26265400D03*
X72725200Y-26265400D03*
X75265200Y-26265400D03*
X77805200Y-26265400D03*
X90505200Y-33885400D03*
X93045200Y-33885400D03*
X93045200Y-26265400D03*
X90505200Y-26265400D03*
X87965200Y-33885400D03*
X85425200Y-33885400D03*
X82885200Y-33885400D03*
X80345200Y-33885400D03*
X80345200Y-26265400D03*
X82885200Y-26265400D03*
X85425200Y-26265400D03*
X87965200Y-26265400D03*
X77805200Y-33885400D03*
X75265200Y-33885400D03*
X72725200Y-33885400D03*
D12*
X70185200Y-33885400D03*
D11*
X44790000Y-26265400D03*
X47330000Y-26265400D03*
X49870000Y-26265400D03*
X52410000Y-26265400D03*
X65110000Y-33885400D03*
X67650000Y-33885400D03*
X67650000Y-26265400D03*
X65110000Y-26265400D03*
X62570000Y-33885400D03*
X60030000Y-33885400D03*
X57490000Y-33885400D03*
X54950000Y-33885400D03*
X54950000Y-26265400D03*
X57490000Y-26265400D03*
X60030000Y-26265400D03*
X62570000Y-26265400D03*
X52410000Y-33885400D03*
X49870000Y-33885400D03*
X47330000Y-33885400D03*
D12*
X44790000Y-33885400D03*
D15*
X88390000Y-75650000D03*
D16*
X98550000Y-75650000D03*
D15*
X62290000Y-75600000D03*
D16*
X72450000Y-75600000D03*
D15*
X49690000Y-75600000D03*
D16*
X59850000Y-75600000D03*
D15*
X85360000Y-75600000D03*
D16*
X75200000Y-75600000D03*
D15*
X111060000Y-75650000D03*
D16*
X100900000Y-75650000D03*
X38000000Y-52100000D03*
X33000000Y-52100000D03*
X33550000Y-44200000D03*
X33550000Y-49200000D03*
X42400000Y-75200000D03*
X47400000Y-75200000D03*
D17*
X28700010Y-64500000D03*
X37802209Y-61780195D03*
X36000000Y-60000000D03*
X35143965Y-65642515D03*
X31159780Y-67250000D03*
X28875000Y-67375000D03*
X93029200Y-58125400D03*
X39762400Y-58227000D03*
X90489200Y-67066200D03*
X39550000Y-66102057D03*
X82818400Y-48676600D03*
X39762400Y-48879800D03*
X40462400Y-39075400D03*
X82767600Y-39075400D03*
X82716800Y-66321790D03*
X81450000Y-64300000D03*
X43273589Y-63800000D03*
X43750000Y-55760200D03*
X39877197Y-55701411D03*
X87949200Y-46949400D03*
X38978000Y-47000200D03*
X38927200Y-36941800D03*
X75198400Y-36738600D03*
X74350000Y-66600000D03*
X81749872Y-55385992D03*
X78885992Y-55385992D03*
X80350000Y-59219009D03*
X148550000Y-58300000D03*
X148524810Y-64200000D03*
X76750000Y-64799989D03*
X70118400Y-57719000D03*
X42973599Y-57860200D03*
X43448400Y-39775400D03*
X72607600Y-39775400D03*
X60450000Y-67721790D03*
X60350000Y-65099980D03*
X42573589Y-64629038D03*
X65038400Y-47609800D03*
X41869508Y-47613892D03*
X41869508Y-38207708D03*
X52389200Y-38262600D03*
X51786802Y-68277051D03*
X57570800Y-57160200D03*
X40473599Y-57200000D03*
X40050000Y-70000000D03*
X44769200Y-56460200D03*
X41531856Y-56372804D03*
X41568800Y-70063400D03*
X44769200Y-48321000D03*
X41162400Y-48321000D03*
X41162400Y-37500600D03*
X47410800Y-37500600D03*
X95569200Y-48930600D03*
X146002400Y-48847870D03*
X145912000Y-29880600D03*
X141441600Y-29931400D03*
X146002400Y-65349718D03*
X100649200Y-65643800D03*
X31150000Y-42227432D03*
X34655025Y-54744975D03*
X110890829Y-47417800D03*
X146702400Y-47942751D03*
X146674000Y-26324600D03*
X148799816Y-50105484D03*
X148124800Y-66659800D03*
X123560000Y-67004200D03*
X97850000Y-29600000D03*
X30750000Y-29600000D03*
X31839242Y-55868104D03*
X136209200Y-47017790D03*
X148126367Y-46746200D03*
X148126367Y-31564979D03*
X136158400Y-31545800D03*
X146724800Y-71028600D03*
X29350000Y-28900000D03*
X99550000Y-28900000D03*
X30056400Y-54665102D03*
X115889200Y-49217810D03*
X147026368Y-48888821D03*
X147402400Y-30845800D03*
X115940000Y-30896600D03*
X95550000Y-55001411D03*
X118480000Y-67828200D03*
X148756800Y-67879000D03*
X149526367Y-45781000D03*
X29850000Y-40400000D03*
X97750000Y-40400000D03*
X31971686Y-56990498D03*
X109996400Y-48117800D03*
X145302400Y-48067000D03*
X145251600Y-66304200D03*
X108320000Y-66304200D03*
X94950000Y-41100000D03*
X31150000Y-41100000D03*
X34185231Y-55627753D03*
X143778400Y-42326600D03*
X147424800Y-51775400D03*
X147424800Y-69809400D03*
X28550000Y-28200000D03*
X140350000Y-28281401D03*
X29366400Y-55557687D03*
X138144119Y-49668291D03*
X147600775Y-50314575D03*
X148826367Y-35570200D03*
X98150000Y-54301411D03*
X36700000Y-70536002D03*
X36200000Y-64300000D03*
X38565306Y-63034804D03*
X32850000Y-73050000D03*
X33597411Y-72350000D03*
X28568636Y-63011734D03*
X30300000Y-72700000D03*
X27594038Y-62787765D03*
X36721080Y-61689016D03*
X38056867Y-64014754D03*
X37300000Y-64699970D03*
X57350000Y-65099980D03*
X27750000Y-53200000D03*
X100550000Y-53600000D03*
X27750000Y-61800000D03*
D18*
X29265695Y-64500000D02*
X29315695Y-64550000D01*
X28700010Y-64500000D02*
X29265695Y-64500000D01*
X29315695Y-64550000D02*
X30050000Y-64550000D01*
X30050000Y-64550000D02*
X30050000Y-61150000D01*
X30918400Y-61150000D02*
X31418400Y-60650000D01*
X30050000Y-61150000D02*
X30918400Y-61150000D01*
X31418400Y-60650000D02*
X36800000Y-60650000D01*
D19*
X36800000Y-53300000D02*
X38000000Y-52100000D01*
X36800000Y-60650000D02*
X36800000Y-53300000D01*
D18*
X36800000Y-60650000D02*
X37802209Y-61652209D01*
X37802209Y-61652209D02*
X37802209Y-61780195D01*
D20*
X36650000Y-60650000D02*
X36800000Y-60650000D01*
X36000000Y-60000000D02*
X36650000Y-60650000D01*
X36000000Y-60000000D02*
X35143965Y-60856035D01*
X35143965Y-60856035D02*
X35143965Y-65642515D01*
D19*
X31159780Y-67250000D02*
X29000000Y-67250000D01*
X29000000Y-67250000D02*
X28875000Y-67375000D01*
X87965200Y-36425400D02*
X90505200Y-33885400D01*
X87965200Y-44265400D02*
X87965200Y-36425400D01*
X91942040Y-51885400D02*
X93045200Y-51885400D01*
X90505200Y-51885400D02*
X91942040Y-51885400D01*
X81361199Y-43249401D02*
X80345200Y-44265400D01*
X81661201Y-42949399D02*
X81361199Y-43249401D01*
X86649199Y-42949399D02*
X81661201Y-42949399D01*
X87965200Y-44265400D02*
X86649199Y-42949399D01*
X93045200Y-51885400D02*
X93045200Y-58109400D01*
X93045200Y-58109400D02*
X93029200Y-58125400D01*
X90489200Y-69869400D02*
X90505200Y-69885400D01*
X90489200Y-67066200D02*
X90489200Y-69869400D01*
X91942040Y-69885400D02*
X93045200Y-69885400D01*
X90505200Y-69885400D02*
X91942040Y-69885400D01*
X90505200Y-46805400D02*
X87965200Y-44265400D01*
X90505200Y-51885400D02*
X90505200Y-46805400D01*
X39762400Y-58227000D02*
X39762400Y-65889657D01*
X39762400Y-65889657D02*
X39550000Y-66102057D01*
X83988360Y-69885400D02*
X82885200Y-69885400D01*
X85425200Y-69885400D02*
X83988360Y-69885400D01*
X82885200Y-51885400D02*
X82885200Y-48743400D01*
X82885200Y-48743400D02*
X82818400Y-48676600D01*
X39762400Y-48879800D02*
X39762400Y-39775400D01*
X39762400Y-39775400D02*
X40462400Y-39075400D01*
X82767600Y-34003000D02*
X82885200Y-33885400D01*
X82767600Y-39075400D02*
X82767600Y-34003000D01*
X82716800Y-69717000D02*
X82885200Y-69885400D01*
X82716800Y-66321790D02*
X82716800Y-69717000D01*
X86949201Y-27281399D02*
X87965200Y-26265400D01*
X86649199Y-27581401D02*
X86949201Y-27281399D01*
X82253519Y-27581401D02*
X86649199Y-27581401D01*
X80937518Y-26265400D02*
X82253519Y-27581401D01*
X80345200Y-26265400D02*
X80937518Y-26265400D01*
X86649199Y-31224561D02*
X86649199Y-27581401D01*
X85425200Y-32448560D02*
X86649199Y-31224561D01*
X85425200Y-33885400D02*
X85425200Y-32448560D01*
X82716800Y-66321790D02*
X82716800Y-65566800D01*
X82716800Y-65566800D02*
X81450000Y-64300000D01*
X43750000Y-61352918D02*
X43750000Y-55760200D01*
X43273589Y-63800000D02*
X43273589Y-61829329D01*
X43273589Y-61829329D02*
X43750000Y-61352918D01*
X39877197Y-48994597D02*
X39762400Y-48879800D01*
X39877197Y-55701411D02*
X39877197Y-48994597D01*
X75265200Y-64805400D02*
X77805200Y-62265400D01*
X75265200Y-69885400D02*
X75265200Y-64805400D01*
X92029201Y-61249401D02*
X93045200Y-62265400D01*
X91729199Y-60949399D02*
X92029201Y-61249401D01*
X85425200Y-62265400D02*
X86741201Y-60949399D01*
X76368360Y-51885400D02*
X75265200Y-51885400D01*
X77805200Y-51885400D02*
X76368360Y-51885400D01*
X87965200Y-51885400D02*
X87965200Y-46965400D01*
X87965200Y-46965400D02*
X87949200Y-46949400D01*
X38978000Y-47000200D02*
X38978000Y-36992600D01*
X38978000Y-36992600D02*
X38927200Y-36941800D01*
X75198400Y-33952200D02*
X75265200Y-33885400D01*
X75198400Y-36738600D02*
X75198400Y-33952200D01*
X76702040Y-33885400D02*
X77805200Y-33885400D01*
X75265200Y-33885400D02*
X76702040Y-33885400D01*
X74350000Y-68970200D02*
X75265200Y-69885400D01*
X74350000Y-66600000D02*
X74350000Y-68970200D01*
X87965200Y-51885400D02*
X87965200Y-60484800D01*
X87999399Y-60518999D02*
X87965200Y-60484800D01*
X87999399Y-60949399D02*
X87999399Y-60518999D01*
X87999399Y-60949399D02*
X91729199Y-60949399D01*
X86741201Y-60949399D02*
X87999399Y-60949399D01*
D20*
X87965200Y-51885400D02*
X84600600Y-55250000D01*
X84600600Y-55250000D02*
X81885864Y-55250000D01*
X81885864Y-55250000D02*
X81749872Y-55385992D01*
X78885992Y-52966192D02*
X77805200Y-51885400D01*
X78885992Y-55385992D02*
X78885992Y-52966192D01*
D19*
X70185200Y-42828560D02*
X70185200Y-33885400D01*
X70185200Y-44265400D02*
X70185200Y-42828560D01*
X69052040Y-33885400D02*
X70185200Y-33885400D01*
X67615200Y-33885400D02*
X69052040Y-33885400D01*
X80345200Y-46805400D02*
X77805200Y-44265400D01*
X80345200Y-51885400D02*
X80345200Y-46805400D01*
X69169201Y-43249401D02*
X70185200Y-44265400D01*
X68869199Y-42949399D02*
X69169201Y-43249401D01*
X63881201Y-42949399D02*
X68869199Y-42949399D01*
X62565200Y-44265400D02*
X63881201Y-42949399D01*
X76489199Y-45581401D02*
X76789201Y-45281399D01*
X76789201Y-45281399D02*
X77805200Y-44265400D01*
X71501201Y-45581401D02*
X76489199Y-45581401D01*
X70185200Y-44265400D02*
X71501201Y-45581401D01*
X84409201Y-45281399D02*
X85425200Y-44265400D01*
X84109199Y-45581401D02*
X84409201Y-45281399D01*
X79713519Y-45581401D02*
X84109199Y-45581401D01*
X78397518Y-44265400D02*
X79713519Y-45581401D01*
X77805200Y-44265400D02*
X78397518Y-44265400D01*
X80345200Y-51885400D02*
X80345200Y-59214209D01*
X80345200Y-59214209D02*
X80350000Y-59219009D01*
X148550000Y-58300000D02*
X148550000Y-64174810D01*
X148550000Y-64174810D02*
X148524810Y-64200000D01*
X77805200Y-65855189D02*
X77805200Y-69885400D01*
X76750000Y-64799989D02*
X77805200Y-65855189D01*
X70185200Y-53101400D02*
X70185200Y-51885400D01*
X70085199Y-53201401D02*
X70185200Y-53101400D01*
X61341201Y-53201401D02*
X70085199Y-53201401D01*
X60025200Y-51885400D02*
X61341201Y-53201401D01*
X71401200Y-51885400D02*
X72725200Y-51885400D01*
X70185200Y-51885400D02*
X71401200Y-51885400D01*
X70085199Y-53201401D02*
X70085199Y-57685799D01*
X70085199Y-57685799D02*
X70118400Y-57719000D01*
X86741201Y-24949399D02*
X86441199Y-25249401D01*
X91729199Y-24949399D02*
X86741201Y-24949399D01*
X86441199Y-25249401D02*
X85425200Y-26265400D01*
X93045200Y-26265400D02*
X91729199Y-24949399D01*
X78821199Y-25249401D02*
X77805200Y-26265400D01*
X79121201Y-24949399D02*
X78821199Y-25249401D01*
X84109199Y-24949399D02*
X79121201Y-24949399D01*
X85425200Y-26265400D02*
X84109199Y-24949399D01*
X71501201Y-27581401D02*
X71201199Y-27281399D01*
X71201199Y-27281399D02*
X70185200Y-26265400D01*
X76489199Y-27581401D02*
X71501201Y-27581401D01*
X77805200Y-26265400D02*
X76489199Y-27581401D01*
X71501201Y-32661401D02*
X72725200Y-33885400D01*
X71501201Y-27581401D02*
X71501201Y-32661401D01*
X63551199Y-25249401D02*
X62535200Y-26265400D01*
X63851201Y-24949399D02*
X63551199Y-25249401D01*
X68869199Y-24949399D02*
X63851201Y-24949399D01*
X70185200Y-26265400D02*
X68869199Y-24949399D01*
X55931199Y-25249401D02*
X54915200Y-26265400D01*
X56231201Y-24949399D02*
X55931199Y-25249401D01*
X61219199Y-24949399D02*
X56231201Y-24949399D01*
X62535200Y-26265400D02*
X61219199Y-24949399D01*
X48311199Y-25249401D02*
X47295200Y-26265400D01*
X48611201Y-24949399D02*
X48311199Y-25249401D01*
X53599199Y-24949399D02*
X48611201Y-24949399D01*
X54915200Y-26265400D02*
X53599199Y-24949399D01*
X42973599Y-57860200D02*
X42973599Y-40250201D01*
X42973599Y-40250201D02*
X43448400Y-39775400D01*
X72607600Y-34003000D02*
X72725200Y-33885400D01*
X72607600Y-39775400D02*
X72607600Y-34003000D01*
X60450000Y-67721790D02*
X60450000Y-65199980D01*
X60450000Y-65199980D02*
X60350000Y-65099980D01*
X42573589Y-58260210D02*
X42973599Y-57860200D01*
X42573589Y-64629038D02*
X42573589Y-58260210D01*
X52405200Y-51885400D02*
X52405200Y-62265400D01*
X51389201Y-63281399D02*
X52405200Y-62265400D01*
X51089199Y-63581401D02*
X51389201Y-63281399D01*
X44785200Y-62265400D02*
X46101201Y-63581401D01*
X66629201Y-63281399D02*
X67645200Y-62265400D01*
X66329199Y-63581401D02*
X66629201Y-63281399D01*
X61341201Y-63581401D02*
X66329199Y-63581401D01*
X60025200Y-62265400D02*
X61341201Y-63581401D01*
X73949199Y-63581401D02*
X74249201Y-63281399D01*
X74249201Y-63281399D02*
X75265200Y-62265400D01*
X68961201Y-63581401D02*
X73949199Y-63581401D01*
X67645200Y-62265400D02*
X68961201Y-63581401D01*
X89489201Y-63281399D02*
X90505200Y-62265400D01*
X89189199Y-63581401D02*
X89489201Y-63281399D01*
X84201201Y-63581401D02*
X89189199Y-63581401D01*
X82885200Y-62265400D02*
X84201201Y-63581401D01*
X66329199Y-68661401D02*
X65105200Y-69885400D01*
X66329199Y-63581401D02*
X66329199Y-68661401D01*
X76281199Y-61249401D02*
X75265200Y-62265400D01*
X76581201Y-60949399D02*
X76281199Y-61249401D01*
X81569199Y-60949399D02*
X76581201Y-60949399D01*
X82885200Y-62265400D02*
X81569199Y-60949399D01*
X65105200Y-51885400D02*
X65105200Y-47676600D01*
X65105200Y-47676600D02*
X65038400Y-47609800D01*
X41869508Y-47613892D02*
X41869508Y-38207708D01*
X52389200Y-33899400D02*
X52375200Y-33885400D01*
X52389200Y-38262600D02*
X52389200Y-33899400D01*
X52186801Y-64636801D02*
X51150000Y-63600000D01*
X52186801Y-67877052D02*
X52186801Y-64636801D01*
X46101201Y-63581401D02*
X51150000Y-63600000D01*
X51786802Y-68277051D02*
X52186801Y-67877052D01*
X51150000Y-63600000D02*
X51089199Y-63581401D01*
X59009201Y-61249401D02*
X60025200Y-62265400D01*
X58709199Y-60949399D02*
X59009201Y-61249401D01*
X53721201Y-60949399D02*
X58709199Y-60949399D01*
X52405200Y-62265400D02*
X53721201Y-60949399D01*
X51389201Y-45281399D02*
X52405200Y-44265400D01*
X51089199Y-45581401D02*
X51389201Y-45281399D01*
X46101201Y-45581401D02*
X51089199Y-45581401D01*
X44785200Y-44265400D02*
X46101201Y-45581401D01*
X59009201Y-45281399D02*
X60025200Y-44265400D01*
X53721201Y-45581401D02*
X58709199Y-45581401D01*
X58709199Y-45581401D02*
X59009201Y-45281399D01*
X52405200Y-44265400D02*
X53721201Y-45581401D01*
X66329199Y-45581401D02*
X66629201Y-45281399D01*
X61341201Y-45581401D02*
X66329199Y-45581401D01*
X66629201Y-45281399D02*
X67645200Y-44265400D01*
X60025200Y-44265400D02*
X61341201Y-45581401D01*
X57485200Y-46805400D02*
X58709199Y-45581401D01*
X57485200Y-51885400D02*
X57485200Y-46805400D01*
X56048360Y-51885400D02*
X54945200Y-51885400D01*
X57485200Y-51885400D02*
X56048360Y-51885400D01*
X60025200Y-36455400D02*
X57455200Y-33885400D01*
X60025200Y-44265400D02*
X60025200Y-36455400D01*
X56018360Y-33885400D02*
X54915200Y-33885400D01*
X57455200Y-33885400D02*
X56018360Y-33885400D01*
X57485200Y-53322240D02*
X57570800Y-53407840D01*
X57485200Y-51885400D02*
X57485200Y-53322240D01*
X57570800Y-53407840D02*
X57570800Y-57160200D01*
X52338400Y-69818600D02*
X52405200Y-69885400D01*
X53842040Y-69885400D02*
X54945200Y-69885400D01*
X52405200Y-69885400D02*
X53842040Y-69885400D01*
X56382040Y-69885400D02*
X57485200Y-69885400D01*
X54945200Y-69885400D02*
X56382040Y-69885400D01*
X40473599Y-57200000D02*
X40473599Y-69576401D01*
X40473599Y-69576401D02*
X40050000Y-70000000D01*
X46001200Y-51885400D02*
X47325200Y-51885400D01*
X44785200Y-51885400D02*
X46001200Y-51885400D01*
X48762040Y-51885400D02*
X49865200Y-51885400D01*
X47325200Y-51885400D02*
X48762040Y-51885400D01*
X44785200Y-53101400D02*
X44769200Y-53117400D01*
X44785200Y-51885400D02*
X44785200Y-53101400D01*
X44769200Y-53117400D02*
X44769200Y-56753800D01*
X44769200Y-56753800D02*
X44769200Y-56460200D01*
X41173599Y-57648601D02*
X41873589Y-58348591D01*
X41173599Y-56976599D02*
X41173599Y-57648601D01*
X41531856Y-56372804D02*
X41531856Y-56618342D01*
X41531856Y-56618342D02*
X41173599Y-56976599D01*
X44785200Y-51885400D02*
X44785200Y-48337000D01*
X44785200Y-48337000D02*
X44769200Y-48321000D01*
X41162400Y-48321000D02*
X41162400Y-47755315D01*
X41162400Y-47755315D02*
X41162400Y-37500600D01*
X47295200Y-37385000D02*
X47410800Y-37500600D01*
X47295200Y-33885400D02*
X47295200Y-37385000D01*
X48732040Y-33885400D02*
X49835200Y-33885400D01*
X47295200Y-33885400D02*
X48732040Y-33885400D01*
X49835200Y-32448560D02*
X51068400Y-31215360D01*
X49835200Y-33885400D02*
X49835200Y-32448560D01*
X58979201Y-27281399D02*
X59995200Y-26265400D01*
X58679199Y-27581401D02*
X58979201Y-27281399D01*
X53691201Y-27581401D02*
X58679199Y-27581401D01*
X52375200Y-26265400D02*
X53691201Y-27581401D01*
X66599201Y-27281399D02*
X67615200Y-26265400D01*
X66299199Y-27581401D02*
X66599201Y-27281399D01*
X61311201Y-27581401D02*
X66299199Y-27581401D01*
X59995200Y-26265400D02*
X61311201Y-27581401D01*
X51359201Y-27281399D02*
X52375200Y-26265400D01*
X51059199Y-27581401D02*
X51359201Y-27281399D01*
X46071201Y-27581401D02*
X51059199Y-27581401D01*
X44755200Y-26265400D02*
X46071201Y-27581401D01*
X51059199Y-31206159D02*
X51068400Y-31215360D01*
X51059199Y-27581401D02*
X51059199Y-31206159D01*
X41873589Y-64899807D02*
X41568800Y-65204596D01*
X41873589Y-58348591D02*
X41873589Y-64899807D01*
X41568800Y-65204596D02*
X41568800Y-70063400D01*
X99562040Y-51885400D02*
X100665200Y-51885400D01*
X98125200Y-51885400D02*
X99562040Y-51885400D01*
X96801200Y-69885400D02*
X98125200Y-69885400D01*
X95585200Y-69885400D02*
X96801200Y-69885400D01*
X99562040Y-69885400D02*
X100665200Y-69885400D01*
X98125200Y-69885400D02*
X99562040Y-69885400D01*
X96801200Y-51885400D02*
X98125200Y-51885400D01*
X95585200Y-51885400D02*
X96801200Y-51885400D01*
X95585200Y-51885400D02*
X95585200Y-48946600D01*
X95585200Y-48946600D02*
X95569200Y-48930600D01*
X146002400Y-48847870D02*
X146002400Y-29971000D01*
X146002400Y-29971000D02*
X145912000Y-29880600D01*
X141441600Y-26401800D02*
X141305200Y-26265400D01*
X141441600Y-29931400D02*
X141441600Y-26401800D01*
X134701199Y-25249401D02*
X133685200Y-26265400D01*
X139989199Y-24949399D02*
X135001201Y-24949399D01*
X135001201Y-24949399D02*
X134701199Y-25249401D01*
X141305200Y-26265400D02*
X139989199Y-24949399D01*
X127081199Y-25249401D02*
X126065200Y-26265400D01*
X127381201Y-24949399D02*
X127081199Y-25249401D01*
X132369199Y-24949399D02*
X127381201Y-24949399D01*
X133685200Y-26265400D02*
X132369199Y-24949399D01*
X119461199Y-25249401D02*
X118445200Y-26265400D01*
X119761201Y-24949399D02*
X119461199Y-25249401D01*
X124749199Y-24949399D02*
X119761201Y-24949399D01*
X126065200Y-26265400D02*
X124749199Y-24949399D01*
X111841199Y-25249401D02*
X110825200Y-26265400D01*
X112141201Y-24949399D02*
X111841199Y-25249401D01*
X117129199Y-24949399D02*
X112141201Y-24949399D01*
X118445200Y-26265400D02*
X117129199Y-24949399D01*
X104521201Y-24949399D02*
X104221199Y-25249401D01*
X109509199Y-24949399D02*
X104521201Y-24949399D01*
X104221199Y-25249401D02*
X103205200Y-26265400D01*
X110825200Y-26265400D02*
X109509199Y-24949399D01*
X96601199Y-25249401D02*
X95585200Y-26265400D01*
X101889199Y-24949399D02*
X96901201Y-24949399D01*
X96901201Y-24949399D02*
X96601199Y-25249401D01*
X103205200Y-26265400D02*
X101889199Y-24949399D01*
X100665200Y-28805400D02*
X103205200Y-26265400D01*
X100665200Y-33885400D02*
X100665200Y-28805400D01*
X99562040Y-33885400D02*
X100665200Y-33885400D01*
X98125200Y-33885400D02*
X99562040Y-33885400D01*
X146002400Y-49413555D02*
X145702410Y-49713545D01*
X146002400Y-48847870D02*
X146002400Y-49413555D01*
X145702410Y-49713545D02*
X145702410Y-65049728D01*
X145702410Y-65049728D02*
X146002400Y-65349718D01*
X100649200Y-69869400D02*
X100665200Y-69885400D01*
X100649200Y-65643800D02*
X100649200Y-69869400D01*
X30750040Y-44765659D02*
X30750040Y-52101452D01*
X30750040Y-52101452D02*
X33354828Y-54706240D01*
X31150000Y-42227432D02*
X31150000Y-44365699D01*
X31150000Y-44365699D02*
X30750040Y-44765659D01*
X34050605Y-54706240D02*
X33354828Y-54706240D01*
X34089340Y-54744975D02*
X34050605Y-54706240D01*
X34655025Y-54744975D02*
X34089340Y-54744975D01*
X122088360Y-51885400D02*
X120985200Y-51885400D01*
X123525200Y-51885400D02*
X122088360Y-51885400D01*
X112141201Y-53201401D02*
X111841199Y-52901399D01*
X111841199Y-52901399D02*
X110825200Y-51885400D01*
X120885199Y-53201401D02*
X112141201Y-53201401D01*
X120985200Y-53101400D02*
X120885199Y-53201401D01*
X120985200Y-51885400D02*
X120985200Y-53101400D01*
X110825200Y-51885400D02*
X110825200Y-47483429D01*
X110825200Y-47483429D02*
X110890829Y-47417800D01*
X146702400Y-47942751D02*
X146702400Y-26353000D01*
X146702400Y-26353000D02*
X146674000Y-26324600D01*
X120885199Y-71201401D02*
X120985200Y-71101400D01*
X112141201Y-71201401D02*
X120885199Y-71201401D01*
X120985200Y-71101400D02*
X120985200Y-69885400D01*
X110825200Y-69885400D02*
X112141201Y-71201401D01*
X122201200Y-69885400D02*
X123525200Y-69885400D01*
X120985200Y-69885400D02*
X122201200Y-69885400D01*
X148799816Y-50105484D02*
X148799816Y-51613194D01*
X148799816Y-51613194D02*
X147824810Y-52588200D01*
X147824810Y-52588200D02*
X147824810Y-66359810D01*
X147824810Y-66359810D02*
X148124800Y-66659800D01*
X123560000Y-69850600D02*
X123525200Y-69885400D01*
X123560000Y-67004200D02*
X123560000Y-69850600D01*
X123525200Y-28805400D02*
X123525200Y-33885400D01*
X120985200Y-26265400D02*
X123525200Y-28805400D01*
X110825200Y-28805400D02*
X113365200Y-26265400D01*
X110825200Y-33885400D02*
X110825200Y-28805400D01*
X98125200Y-26265400D02*
X98084600Y-26265400D01*
X98125200Y-26265400D02*
X98125200Y-29324800D01*
X98125200Y-29324800D02*
X97850000Y-29600000D01*
X31248357Y-55277219D02*
X31248357Y-55200000D01*
X31839242Y-55868104D02*
X31248357Y-55277219D01*
X29950020Y-41300000D02*
X30750000Y-40500020D01*
X30750000Y-40500020D02*
X30750000Y-29600000D01*
X29950020Y-52434322D02*
X29950020Y-41300000D01*
X31248357Y-55277219D02*
X31248357Y-53732658D01*
X31248357Y-53732658D02*
X29950020Y-52434322D01*
X136225200Y-51885400D02*
X136225200Y-47033790D01*
X136225200Y-47033790D02*
X136209200Y-47017790D01*
X148126367Y-46746200D02*
X148126367Y-31564979D01*
X136158400Y-33818600D02*
X136225200Y-33885400D01*
X136158400Y-31545800D02*
X136158400Y-33818600D01*
X133685200Y-33885400D02*
X136225200Y-33885400D01*
X148126367Y-48824824D02*
X148096400Y-48854791D01*
X148126367Y-46746200D02*
X148126367Y-48824824D01*
X148070609Y-48854791D02*
X146102420Y-50822980D01*
X148096400Y-48854791D02*
X148070609Y-48854791D01*
X146102420Y-50822980D02*
X146724800Y-51445360D01*
X146724800Y-51445360D02*
X146724800Y-71028600D01*
X136158400Y-28872200D02*
X138765200Y-26265400D01*
X136158400Y-31545800D02*
X136158400Y-28872200D01*
X124541199Y-27281399D02*
X123525200Y-26265400D01*
X124841201Y-27581401D02*
X124541199Y-27281399D01*
X129829199Y-27581401D02*
X124841201Y-27581401D01*
X131145200Y-26265400D02*
X129829199Y-27581401D01*
X29150000Y-29100000D02*
X29350000Y-28900000D01*
X100665200Y-27784800D02*
X100665200Y-26265400D01*
X99550000Y-28900000D02*
X100665200Y-27784800D01*
X29149999Y-40063999D02*
X29150000Y-41350000D01*
X29350000Y-28900000D02*
X29350000Y-39863998D01*
X29350000Y-39863998D02*
X29149999Y-40063999D01*
X29150000Y-41350000D02*
X29150000Y-53758702D01*
X29150000Y-53758702D02*
X30056400Y-54665102D01*
X103205200Y-60828560D02*
X103205200Y-51885400D01*
X103205200Y-62265400D02*
X103205200Y-60828560D01*
X109809201Y-63281399D02*
X110825200Y-62265400D01*
X109509199Y-63581401D02*
X109809201Y-63281399D01*
X104521201Y-63581401D02*
X109509199Y-63581401D01*
X103205200Y-62265400D02*
X104521201Y-63581401D01*
X118404000Y-62265400D02*
X118175200Y-62494200D01*
X118445200Y-62265400D02*
X118404000Y-62265400D01*
X111841199Y-63281399D02*
X110825200Y-62265400D01*
X112141201Y-63581401D02*
X111841199Y-63281399D01*
X117129199Y-63581401D02*
X112141201Y-63581401D01*
X118445200Y-62265400D02*
X117129199Y-63581401D01*
X117129199Y-67224561D02*
X117129199Y-63581401D01*
X115905200Y-68448560D02*
X117129199Y-67224561D01*
X115905200Y-69885400D02*
X115905200Y-68448560D01*
X135001201Y-60949399D02*
X134701199Y-61249401D01*
X134701199Y-61249401D02*
X133685200Y-62265400D01*
X139989199Y-60949399D02*
X135001201Y-60949399D01*
X141305200Y-62265400D02*
X139989199Y-60949399D01*
X127081199Y-63281399D02*
X126065200Y-62265400D01*
X132369199Y-63581401D02*
X127381201Y-63581401D01*
X127381201Y-63581401D02*
X127081199Y-63281399D01*
X133685200Y-62265400D02*
X132369199Y-63581401D01*
X119761201Y-63581401D02*
X119461199Y-63281399D01*
X119461199Y-63281399D02*
X118445200Y-62265400D01*
X124749199Y-63581401D02*
X119761201Y-63581401D01*
X126065200Y-62265400D02*
X124749199Y-63581401D01*
X115905200Y-51885400D02*
X115905200Y-49233810D01*
X115905200Y-49233810D02*
X115889200Y-49217810D01*
X147426367Y-30869767D02*
X147402400Y-30845800D01*
X147026368Y-48888821D02*
X147426367Y-48488822D01*
X147426367Y-48488822D02*
X147426367Y-30869767D01*
X115940000Y-33850600D02*
X115905200Y-33885400D01*
X115940000Y-30896600D02*
X115940000Y-33850600D01*
X114468360Y-33885400D02*
X113365200Y-33885400D01*
X115905200Y-33885400D02*
X114468360Y-33885400D01*
X96601199Y-63281399D02*
X95585200Y-62265400D01*
X96901201Y-63581401D02*
X96601199Y-63281399D01*
X101296881Y-63581401D02*
X96901201Y-63581401D01*
X102612882Y-62265400D02*
X101296881Y-63581401D01*
X103205200Y-62265400D02*
X102612882Y-62265400D01*
X95585200Y-62265400D02*
X95515400Y-62265400D01*
X95515400Y-62265400D02*
X95550000Y-62230800D01*
X95550000Y-62230800D02*
X95550000Y-55001411D01*
X129621199Y-45281399D02*
X128605200Y-44265400D01*
X129921201Y-45581401D02*
X129621199Y-45281399D01*
X134909199Y-45581401D02*
X129921201Y-45581401D01*
X136225200Y-44265400D02*
X134909199Y-45581401D01*
X122301201Y-45581401D02*
X122001199Y-45281399D01*
X122001199Y-45281399D02*
X120985200Y-44265400D01*
X127289199Y-45581401D02*
X122301201Y-45581401D01*
X128605200Y-44265400D02*
X127289199Y-45581401D01*
X114381199Y-45281399D02*
X113365200Y-44265400D01*
X114681201Y-45581401D02*
X114381199Y-45281399D01*
X119669199Y-45581401D02*
X114681201Y-45581401D01*
X120985200Y-44265400D02*
X119669199Y-45581401D01*
X119669199Y-49224561D02*
X119669199Y-45581401D01*
X118445200Y-50448560D02*
X119669199Y-49224561D01*
X118445200Y-51885400D02*
X118445200Y-50448560D01*
X137241199Y-43249401D02*
X136225200Y-44265400D01*
X142529199Y-42949399D02*
X137541201Y-42949399D01*
X137541201Y-42949399D02*
X137241199Y-43249401D01*
X143845200Y-44265400D02*
X142529199Y-42949399D01*
X119882040Y-33885400D02*
X120985200Y-33885400D01*
X118445200Y-33885400D02*
X119882040Y-33885400D01*
X130129201Y-34901399D02*
X131145200Y-33885400D01*
X121085201Y-35201401D02*
X129829199Y-35201401D01*
X129829199Y-35201401D02*
X130129201Y-34901399D01*
X120985200Y-35101400D02*
X121085201Y-35201401D01*
X120985200Y-33885400D02*
X120985200Y-35101400D01*
X120985200Y-42828560D02*
X120985200Y-35101400D01*
X120985200Y-44265400D02*
X120985200Y-42828560D01*
X119461199Y-50869401D02*
X118445200Y-51885400D01*
X119761201Y-50569399D02*
X119461199Y-50869401D01*
X129829199Y-50569399D02*
X119761201Y-50569399D01*
X131145200Y-51885400D02*
X129829199Y-50569399D01*
X118480000Y-68413760D02*
X118480000Y-67828200D01*
X118445200Y-69885400D02*
X118445200Y-68448560D01*
X118445200Y-68448560D02*
X118480000Y-68413760D01*
X148756800Y-67879000D02*
X149526367Y-67109433D01*
X149526367Y-67109433D02*
X149526367Y-45781000D01*
X97750000Y-43890200D02*
X98125200Y-44265400D01*
X97750000Y-40400000D02*
X97750000Y-43890200D01*
X29550010Y-40699990D02*
X29850000Y-40400000D01*
X30848347Y-53898347D02*
X29550010Y-52600010D01*
X29550010Y-52600010D02*
X29550010Y-40699990D01*
X31971686Y-56990498D02*
X30848347Y-55867159D01*
X30848347Y-55867159D02*
X30848347Y-53898347D01*
X104642040Y-69885400D02*
X105745200Y-69885400D01*
X103205200Y-69885400D02*
X104642040Y-69885400D01*
X107182040Y-69885400D02*
X108285200Y-69885400D01*
X105745200Y-69885400D02*
X107182040Y-69885400D01*
X95585200Y-44265400D02*
X95585200Y-42828560D01*
X102189201Y-45281399D02*
X103205200Y-44265400D01*
X96901201Y-45581401D02*
X101889199Y-45581401D01*
X101889199Y-45581401D02*
X102189201Y-45281399D01*
X95585200Y-44265400D02*
X96901201Y-45581401D01*
X109809201Y-45281399D02*
X110825200Y-44265400D01*
X109509199Y-45581401D02*
X109809201Y-45281399D01*
X104521201Y-45581401D02*
X109509199Y-45581401D01*
X103205200Y-44265400D02*
X104521201Y-45581401D01*
X109509199Y-50661401D02*
X108285200Y-51885400D01*
X117429201Y-43249401D02*
X118445200Y-44265400D01*
X112141201Y-42949399D02*
X117129199Y-42949399D01*
X117129199Y-42949399D02*
X117429201Y-43249401D01*
X110825200Y-44265400D02*
X112141201Y-42949399D01*
X106848360Y-51885400D02*
X105745200Y-51885400D01*
X108285200Y-51885400D02*
X106848360Y-51885400D01*
X109509199Y-48147801D02*
X109966399Y-48147801D01*
X109966399Y-48147801D02*
X109996400Y-48117800D01*
X109509199Y-48147801D02*
X109509199Y-50661401D01*
X109509199Y-45581401D02*
X109509199Y-48147801D01*
X145302400Y-48067000D02*
X145302400Y-66253400D01*
X145302400Y-66253400D02*
X145251600Y-66304200D01*
X108320000Y-69850600D02*
X108285200Y-69885400D01*
X108320000Y-66304200D02*
X108320000Y-69850600D01*
X95285200Y-40764800D02*
X94950000Y-41100000D01*
X95585200Y-40764800D02*
X95585200Y-33885400D01*
X95585200Y-40764800D02*
X95285200Y-40764800D01*
X95585200Y-42828560D02*
X95585200Y-40764800D01*
X30450000Y-41800000D02*
X31150000Y-41100000D01*
X30450000Y-44500000D02*
X30450000Y-41800000D01*
X30350030Y-44599970D02*
X30450000Y-44500000D01*
X34185231Y-55627753D02*
X33619546Y-55627753D01*
X30350030Y-52268634D02*
X30350030Y-44599970D01*
X33619546Y-55627753D02*
X33526374Y-55534581D01*
X33526374Y-55534581D02*
X33526374Y-55444976D01*
X33526374Y-55444976D02*
X30350030Y-52268634D01*
X142408360Y-51885400D02*
X141305200Y-51885400D01*
X143845200Y-51885400D02*
X142408360Y-51885400D01*
X138765200Y-49345400D02*
X138765200Y-44265400D01*
X141305200Y-51885400D02*
X138765200Y-49345400D01*
X143778400Y-33952200D02*
X143845200Y-33885400D01*
X143778400Y-42326600D02*
X143778400Y-33952200D01*
X147424800Y-51775400D02*
X147424800Y-69809400D01*
X28450000Y-42500000D02*
X28450000Y-28300000D01*
X28450000Y-28300000D02*
X28550000Y-28200000D01*
X140350000Y-32930200D02*
X141305200Y-33885400D01*
X140350000Y-28281401D02*
X140350000Y-32930200D01*
D20*
X142742040Y-33885400D02*
X143845200Y-33885400D01*
X141305200Y-33885400D02*
X142742040Y-33885400D01*
D21*
X28440001Y-42509999D02*
X28450000Y-42500000D01*
X28440001Y-54631288D02*
X28440001Y-42509999D01*
X29366400Y-55557687D02*
X28440001Y-54631288D01*
D19*
X128605200Y-53322240D02*
X128605200Y-62265400D01*
X128605200Y-51885400D02*
X128605200Y-53322240D01*
X137749201Y-68869401D02*
X138765200Y-69885400D01*
X137449199Y-68569399D02*
X137749201Y-68869401D01*
X127381201Y-68569399D02*
X137449199Y-68569399D01*
X126065200Y-69885400D02*
X127381201Y-68569399D01*
X137449199Y-64926239D02*
X137449199Y-68569399D01*
X136225200Y-63702240D02*
X137449199Y-64926239D01*
X136225200Y-62265400D02*
X136225200Y-63702240D01*
X129621199Y-52901399D02*
X128605200Y-51885400D01*
X129921201Y-53201401D02*
X129621199Y-52901399D01*
X137449199Y-53201401D02*
X129921201Y-53201401D01*
X138765200Y-51885400D02*
X137449199Y-53201401D01*
X127168360Y-51885400D02*
X126065200Y-51885400D01*
X128605200Y-51885400D02*
X127168360Y-51885400D01*
X137749201Y-50063209D02*
X138144119Y-49668291D01*
X138765200Y-51885400D02*
X137749201Y-50869401D01*
X137749201Y-50869401D02*
X137749201Y-50063209D01*
X147600775Y-50314575D02*
X148826367Y-49088981D01*
X148826367Y-49088981D02*
X148826367Y-35570200D01*
X98150000Y-62240600D02*
X98125200Y-62265400D01*
X98150000Y-54301411D02*
X98150000Y-62240600D01*
X39300000Y-76500000D02*
X40150000Y-77350000D01*
X39300000Y-75450000D02*
X39300000Y-76500000D01*
X96850000Y-77350000D02*
X98550000Y-75650000D01*
X85360000Y-77310000D02*
X85360000Y-75600000D01*
X85400000Y-77350000D02*
X85360000Y-77310000D01*
X85400000Y-77350000D02*
X96850000Y-77350000D01*
X72550000Y-77350000D02*
X72450000Y-77250000D01*
X72450000Y-77250000D02*
X72450000Y-75600000D01*
X72550000Y-77350000D02*
X85400000Y-77350000D01*
X59850000Y-77300000D02*
X59850000Y-75600000D01*
X59900000Y-77350000D02*
X59850000Y-77300000D01*
X59900000Y-77350000D02*
X72550000Y-77350000D01*
X40150000Y-77350000D02*
X59900000Y-77350000D01*
X36700000Y-70536002D02*
X36200000Y-70036002D01*
X36200000Y-70036002D02*
X36200000Y-64300000D01*
X37465196Y-63034804D02*
X36200000Y-64300000D01*
X38565306Y-63034804D02*
X37465196Y-63034804D01*
X48189999Y-74099999D02*
X46865697Y-74099999D01*
X49690000Y-75600000D02*
X48189999Y-74099999D01*
X46865697Y-74099999D02*
X46115689Y-73349990D01*
X33100000Y-73300000D02*
X32850000Y-73050000D01*
X46115689Y-73349990D02*
X33100000Y-73349990D01*
X33100000Y-73349990D02*
X33100000Y-73300000D01*
X60934302Y-74244302D02*
X62290000Y-75600000D01*
X48900000Y-74244302D02*
X60934302Y-74244302D01*
X48355687Y-73699989D02*
X48900000Y-74244302D01*
X33597411Y-72350000D02*
X34163096Y-72350000D01*
X34163096Y-72350000D02*
X34763076Y-72949980D01*
X34763076Y-72949980D02*
X46281378Y-72949980D01*
X46281378Y-72949980D02*
X47031385Y-73699989D01*
X47031385Y-73699989D02*
X48355687Y-73699989D01*
X28050000Y-72150000D02*
X28000010Y-72100010D01*
X28000010Y-72100010D02*
X28000010Y-63500000D01*
X28000010Y-63500000D02*
X28080370Y-63500000D01*
X28080370Y-63500000D02*
X28568636Y-63011734D01*
X28100000Y-72200000D02*
X28000010Y-72100010D01*
X29234315Y-72200000D02*
X28100000Y-72200000D01*
X29734315Y-72700000D02*
X29234315Y-72200000D01*
X30300000Y-72700000D02*
X29734315Y-72700000D01*
X47400000Y-75200000D02*
X45950000Y-73750000D01*
X45950000Y-73750000D02*
X28000000Y-73750000D01*
X28000000Y-73750000D02*
X27600000Y-73350000D01*
X27600000Y-73350000D02*
X27600000Y-62793727D01*
X27600000Y-62793727D02*
X27594038Y-62787765D01*
X100900000Y-74518630D02*
X98031370Y-71650000D01*
X100900000Y-75650000D02*
X100900000Y-74518630D01*
X98031370Y-71650000D02*
X40663998Y-71650000D01*
X38849999Y-69836001D02*
X38849999Y-64600001D01*
X40663998Y-71650000D02*
X38849999Y-69836001D01*
X38849999Y-64600001D02*
X38850000Y-64600000D01*
X37121079Y-62089015D02*
X36721080Y-61689016D01*
X37512260Y-62480196D02*
X37121079Y-62089015D01*
X38138210Y-62480196D02*
X37512260Y-62480196D01*
X38502210Y-62116196D02*
X38138210Y-62480196D01*
X38502210Y-61497790D02*
X38502210Y-62116196D01*
X38550000Y-61450000D02*
X38502210Y-61497790D01*
X38849999Y-64600001D02*
X38849999Y-63736001D01*
X39362390Y-61450000D02*
X38550000Y-61450000D01*
X38849999Y-63736001D02*
X39113999Y-63736001D01*
X39113999Y-63736001D02*
X39362390Y-63487610D01*
X39362390Y-63487610D02*
X39362390Y-61450000D01*
X88390000Y-72540000D02*
X88390000Y-75650000D01*
X40498299Y-72050000D02*
X87900000Y-72050000D01*
X87900000Y-72050000D02*
X88390000Y-72540000D01*
X38056867Y-64014754D02*
X38056867Y-69608568D01*
X38056867Y-69608568D02*
X40498299Y-72050000D01*
X75200000Y-73300000D02*
X75200000Y-75600000D01*
X74350010Y-72450010D02*
X75200000Y-73300000D01*
X37300000Y-65265655D02*
X37656857Y-65622512D01*
X37656857Y-69774257D02*
X40332610Y-72450010D01*
X37300000Y-64699970D02*
X37300000Y-65265655D01*
X37656857Y-65622512D02*
X37656857Y-69774257D01*
X40332610Y-72450010D02*
X74350010Y-72450010D01*
X57350000Y-62400600D02*
X57485200Y-62265400D01*
X57350000Y-65099980D02*
X57350000Y-62400600D01*
X100550000Y-62150200D02*
X100665200Y-62265400D01*
X100550000Y-53600000D02*
X100550000Y-62150200D01*
X27750000Y-61800000D02*
X27750000Y-53200000D01*
M02*
