G04 #@! TF.GenerationSoftware,KiCad,Pcbnew,(5.1.5)-3*
G04 #@! TF.CreationDate,2023-02-05T16:44:42+09:00*
G04 #@! TF.ProjectId,Dot_matrix_driver,446f745f-6d61-4747-9269-785f64726976,rev?*
G04 #@! TF.SameCoordinates,Original*
G04 #@! TF.FileFunction,Legend,Bot*
G04 #@! TF.FilePolarity,Positive*
%FSLAX46Y46*%
G04 Gerber Fmt 4.6, Leading zero omitted, Abs format (unit mm)*
G04 Created by KiCad (PCBNEW (5.1.5)-3) date 2023-02-05 16:44:42*
%MOMM*%
%LPD*%
G04 APERTURE LIST*
%ADD10C,3.900000*%
%ADD11C,2.132000*%
%ADD12R,2.132000X2.132000*%
%ADD13O,1.800000X1.800000*%
%ADD14R,1.800000X1.800000*%
%ADD15O,1.700000X1.700000*%
%ADD16C,1.700000*%
G04 APERTURE END LIST*
%LPC*%
D10*
X24550000Y-76200000D03*
X24550000Y-22700000D03*
X148050000Y-22700000D03*
X148050000Y-76200000D03*
D11*
X44785200Y-62265400D03*
X47325200Y-62265400D03*
X49865200Y-62265400D03*
X52405200Y-62265400D03*
X65105200Y-69885400D03*
X67645200Y-69885400D03*
X67645200Y-62265400D03*
X65105200Y-62265400D03*
X62565200Y-69885400D03*
X60025200Y-69885400D03*
X57485200Y-69885400D03*
X54945200Y-69885400D03*
X54945200Y-62265400D03*
X57485200Y-62265400D03*
X60025200Y-62265400D03*
X62565200Y-62265400D03*
X52405200Y-69885400D03*
X49865200Y-69885400D03*
X47325200Y-69885400D03*
D12*
X44785200Y-69885400D03*
D13*
X29140000Y-75450000D03*
X31680000Y-75450000D03*
X34220000Y-75450000D03*
X36760000Y-75450000D03*
D14*
X39300000Y-75450000D03*
D11*
X120985200Y-62265400D03*
X123525200Y-62265400D03*
X126065200Y-62265400D03*
X128605200Y-62265400D03*
X141305200Y-69885400D03*
X143845200Y-69885400D03*
X143845200Y-62265400D03*
X141305200Y-62265400D03*
X138765200Y-69885400D03*
X136225200Y-69885400D03*
X133685200Y-69885400D03*
X131145200Y-69885400D03*
X131145200Y-62265400D03*
X133685200Y-62265400D03*
X136225200Y-62265400D03*
X138765200Y-62265400D03*
X128605200Y-69885400D03*
X126065200Y-69885400D03*
X123525200Y-69885400D03*
D12*
X120985200Y-69885400D03*
D11*
X95585200Y-62265400D03*
X98125200Y-62265400D03*
X100665200Y-62265400D03*
X103205200Y-62265400D03*
X115905200Y-69885400D03*
X118445200Y-69885400D03*
X118445200Y-62265400D03*
X115905200Y-62265400D03*
X113365200Y-69885400D03*
X110825200Y-69885400D03*
X108285200Y-69885400D03*
X105745200Y-69885400D03*
X105745200Y-62265400D03*
X108285200Y-62265400D03*
X110825200Y-62265400D03*
X113365200Y-62265400D03*
X103205200Y-69885400D03*
X100665200Y-69885400D03*
X98125200Y-69885400D03*
D12*
X95585200Y-69885400D03*
D11*
X70185200Y-62265400D03*
X72725200Y-62265400D03*
X75265200Y-62265400D03*
X77805200Y-62265400D03*
X90505200Y-69885400D03*
X93045200Y-69885400D03*
X93045200Y-62265400D03*
X90505200Y-62265400D03*
X87965200Y-69885400D03*
X85425200Y-69885400D03*
X82885200Y-69885400D03*
X80345200Y-69885400D03*
X80345200Y-62265400D03*
X82885200Y-62265400D03*
X85425200Y-62265400D03*
X87965200Y-62265400D03*
X77805200Y-69885400D03*
X75265200Y-69885400D03*
X72725200Y-69885400D03*
D12*
X70185200Y-69885400D03*
D11*
X120985200Y-44265400D03*
X123525200Y-44265400D03*
X126065200Y-44265400D03*
X128605200Y-44265400D03*
X141305200Y-51885400D03*
X143845200Y-51885400D03*
X143845200Y-44265400D03*
X141305200Y-44265400D03*
X138765200Y-51885400D03*
X136225200Y-51885400D03*
X133685200Y-51885400D03*
X131145200Y-51885400D03*
X131145200Y-44265400D03*
X133685200Y-44265400D03*
X136225200Y-44265400D03*
X138765200Y-44265400D03*
X128605200Y-51885400D03*
X126065200Y-51885400D03*
X123525200Y-51885400D03*
D12*
X120985200Y-51885400D03*
D11*
X95585200Y-44265400D03*
X98125200Y-44265400D03*
X100665200Y-44265400D03*
X103205200Y-44265400D03*
X115905200Y-51885400D03*
X118445200Y-51885400D03*
X118445200Y-44265400D03*
X115905200Y-44265400D03*
X113365200Y-51885400D03*
X110825200Y-51885400D03*
X108285200Y-51885400D03*
X105745200Y-51885400D03*
X105745200Y-44265400D03*
X108285200Y-44265400D03*
X110825200Y-44265400D03*
X113365200Y-44265400D03*
X103205200Y-51885400D03*
X100665200Y-51885400D03*
X98125200Y-51885400D03*
D12*
X95585200Y-51885400D03*
D11*
X70185200Y-44265400D03*
X72725200Y-44265400D03*
X75265200Y-44265400D03*
X77805200Y-44265400D03*
X90505200Y-51885400D03*
X93045200Y-51885400D03*
X93045200Y-44265400D03*
X90505200Y-44265400D03*
X87965200Y-51885400D03*
X85425200Y-51885400D03*
X82885200Y-51885400D03*
X80345200Y-51885400D03*
X80345200Y-44265400D03*
X82885200Y-44265400D03*
X85425200Y-44265400D03*
X87965200Y-44265400D03*
X77805200Y-51885400D03*
X75265200Y-51885400D03*
X72725200Y-51885400D03*
D12*
X70185200Y-51885400D03*
D11*
X44785200Y-44265400D03*
X47325200Y-44265400D03*
X49865200Y-44265400D03*
X52405200Y-44265400D03*
X65105200Y-51885400D03*
X67645200Y-51885400D03*
X67645200Y-44265400D03*
X65105200Y-44265400D03*
X62565200Y-51885400D03*
X60025200Y-51885400D03*
X57485200Y-51885400D03*
X54945200Y-51885400D03*
X54945200Y-44265400D03*
X57485200Y-44265400D03*
X60025200Y-44265400D03*
X62565200Y-44265400D03*
X52405200Y-51885400D03*
X49865200Y-51885400D03*
X47325200Y-51885400D03*
D12*
X44785200Y-51885400D03*
D11*
X120985200Y-26265400D03*
X123525200Y-26265400D03*
X126065200Y-26265400D03*
X128605200Y-26265400D03*
X141305200Y-33885400D03*
X143845200Y-33885400D03*
X143845200Y-26265400D03*
X141305200Y-26265400D03*
X138765200Y-33885400D03*
X136225200Y-33885400D03*
X133685200Y-33885400D03*
X131145200Y-33885400D03*
X131145200Y-26265400D03*
X133685200Y-26265400D03*
X136225200Y-26265400D03*
X138765200Y-26265400D03*
X128605200Y-33885400D03*
X126065200Y-33885400D03*
X123525200Y-33885400D03*
D12*
X120985200Y-33885400D03*
D11*
X95585200Y-26265400D03*
X98125200Y-26265400D03*
X100665200Y-26265400D03*
X103205200Y-26265400D03*
X115905200Y-33885400D03*
X118445200Y-33885400D03*
X118445200Y-26265400D03*
X115905200Y-26265400D03*
X113365200Y-33885400D03*
X110825200Y-33885400D03*
X108285200Y-33885400D03*
X105745200Y-33885400D03*
X105745200Y-26265400D03*
X108285200Y-26265400D03*
X110825200Y-26265400D03*
X113365200Y-26265400D03*
X103205200Y-33885400D03*
X100665200Y-33885400D03*
X98125200Y-33885400D03*
D12*
X95585200Y-33885400D03*
D11*
X70185200Y-26265400D03*
X72725200Y-26265400D03*
X75265200Y-26265400D03*
X77805200Y-26265400D03*
X90505200Y-33885400D03*
X93045200Y-33885400D03*
X93045200Y-26265400D03*
X90505200Y-26265400D03*
X87965200Y-33885400D03*
X85425200Y-33885400D03*
X82885200Y-33885400D03*
X80345200Y-33885400D03*
X80345200Y-26265400D03*
X82885200Y-26265400D03*
X85425200Y-26265400D03*
X87965200Y-26265400D03*
X77805200Y-33885400D03*
X75265200Y-33885400D03*
X72725200Y-33885400D03*
D12*
X70185200Y-33885400D03*
D11*
X44790000Y-26265400D03*
X47330000Y-26265400D03*
X49870000Y-26265400D03*
X52410000Y-26265400D03*
X65110000Y-33885400D03*
X67650000Y-33885400D03*
X67650000Y-26265400D03*
X65110000Y-26265400D03*
X62570000Y-33885400D03*
X60030000Y-33885400D03*
X57490000Y-33885400D03*
X54950000Y-33885400D03*
X54950000Y-26265400D03*
X57490000Y-26265400D03*
X60030000Y-26265400D03*
X62570000Y-26265400D03*
X52410000Y-33885400D03*
X49870000Y-33885400D03*
X47330000Y-33885400D03*
D12*
X44790000Y-33885400D03*
D15*
X88390000Y-75650000D03*
D16*
X98550000Y-75650000D03*
D15*
X62290000Y-75600000D03*
D16*
X72450000Y-75600000D03*
D15*
X49690000Y-75600000D03*
D16*
X59850000Y-75600000D03*
D15*
X85360000Y-75600000D03*
D16*
X75200000Y-75600000D03*
D15*
X111060000Y-75650000D03*
D16*
X100900000Y-75650000D03*
X38000000Y-52100000D03*
X33000000Y-52100000D03*
X33550000Y-44200000D03*
X33550000Y-49200000D03*
X42400000Y-75200000D03*
X47400000Y-75200000D03*
M02*
